<?xml version="1.0" encoding="UTF-8"?>
<svg xmlns="http://www.w3.org/2000/svg" xmlns:xlink="http://www.w3.org/1999/xlink" width="24px" height="21px" viewBox="0 0 24 21" version="1.1">
<g id="surface1">
<path style=" stroke:none;fill-rule:nonzero;fill:rgb(0%,0%,0%);fill-opacity:1;" d="M 12.011719 0 C 14.320312 0 16.535156 0.9375 18.164062 2.609375 C 19.796875 4.285156 20.714844 6.550781 20.710938 8.917969 C 20.710938 9.277344 20.691406 9.636719 20.648438 9.992188 C 20.375 9.691406 20.074219 9.417969 19.746094 9.175781 C 19.746094 9.089844 19.746094 9.003906 19.746094 8.914062 C 19.757812 4.53125 16.296875 0.972656 12.023438 0.964844 C 7.75 0.957031 4.277344 4.5 4.269531 8.882812 L 3.660156 9.472656 C 3.640625 9.492188 3.621094 9.511719 3.601562 9.535156 C 3.515625 9.625 3.4375 9.714844 3.359375 9.808594 C 3.332031 9.515625 3.316406 9.21875 3.316406 8.921875 C 3.3125 6.554688 4.226562 4.285156 5.859375 2.613281 C 7.492188 0.9375 9.703125 0 12.011719 0 Z M 12.460938 7.992188 C 12.636719 8.082031 12.78125 8.222656 12.878906 8.394531 L 14.289062 8.394531 C 14.238281 8.230469 14.292969 8.054688 14.421875 7.949219 C 14.554688 7.847656 14.738281 7.839844 14.875 7.933594 L 15.714844 8.597656 C 15.808594 8.667969 15.863281 8.78125 15.863281 8.902344 C 15.863281 9.023438 15.808594 9.132812 15.714844 9.207031 L 14.875 9.871094 C 14.738281 9.964844 14.554688 9.957031 14.421875 9.855469 C 14.292969 9.75 14.238281 9.574219 14.289062 9.410156 L 12.878906 9.410156 C 12.671875 9.777344 12.265625 9.976562 11.855469 9.914062 C 11.449219 9.847656 11.121094 9.53125 11.03125 9.117188 C 10.941406 8.707031 11.109375 8.277344 11.453125 8.042969 L 11.464844 6.0625 C 11.335938 6.121094 11.183594 6.097656 11.074219 6.007812 C 10.996094 5.941406 10.945312 5.847656 10.9375 5.746094 C 10.925781 5.640625 10.957031 5.539062 11.019531 5.460938 L 11.6875 4.613281 C 11.757812 4.523438 11.859375 4.472656 11.972656 4.46875 C 12.09375 4.46875 12.210938 4.527344 12.285156 4.628906 L 12.914062 5.503906 C 13.019531 5.644531 13.023438 5.839844 12.917969 5.980469 C 12.8125 6.121094 12.628906 6.171875 12.46875 6.101562 Z M 15.8125 14.300781 C 15.9375 14.5 15.878906 14.769531 15.679688 14.894531 C 15.484375 15.023438 15.222656 14.960938 15.101562 14.757812 L 14.761719 14.214844 C 14.648438 14.011719 14.710938 13.753906 14.902344 13.628906 C 15.097656 13.507812 15.347656 13.558594 15.476562 13.753906 Z M 8.210938 3.570312 C 8.085938 3.367188 8.144531 3.101562 8.34375 2.976562 C 8.539062 2.847656 8.800781 2.910156 8.921875 3.113281 L 9.261719 3.65625 C 9.386719 3.859375 9.328125 4.125 9.128906 4.253906 C 8.933594 4.378906 8.671875 4.320312 8.546875 4.117188 Z M 6.101562 6.242188 C 5.910156 6.121094 5.84375 5.871094 5.945312 5.671875 C 6.050781 5.46875 6.285156 5.382812 6.492188 5.472656 L 7.046875 5.773438 C 7.253906 5.886719 7.335938 6.144531 7.226562 6.359375 C 7.117188 6.570312 6.863281 6.652344 6.660156 6.539062 L 6.097656 6.242188 Z M 18.445312 8.238281 C 18.679688 8.230469 18.875 8.414062 18.882812 8.652344 C 18.890625 8.890625 18.710938 9.09375 18.476562 9.101562 L 17.847656 9.128906 C 17.617188 9.136719 17.421875 8.953125 17.410156 8.714844 C 17.402344 8.476562 17.582031 8.273438 17.816406 8.265625 Z M 17.246094 5.042969 C 17.371094 4.953125 17.539062 4.941406 17.675781 5.011719 C 17.816406 5.085938 17.902344 5.230469 17.90625 5.386719 C 17.910156 5.546875 17.828125 5.695312 17.695312 5.773438 L 17.164062 6.117188 C 16.964844 6.246094 16.703125 6.1875 16.582031 5.984375 C 16.457031 5.78125 16.515625 5.515625 16.710938 5.386719 Z M 14.644531 2.878906 C 14.703125 2.726562 14.84375 2.621094 15.003906 2.609375 C 15.164062 2.597656 15.316406 2.679688 15.398438 2.820312 C 15.480469 2.960938 15.476562 3.140625 15.390625 3.277344 L 15.097656 3.847656 C 14.980469 4.035156 14.742188 4.101562 14.546875 3.996094 C 14.355469 3.894531 14.269531 3.65625 14.351562 3.449219 Z M 11.328125 2.34375 C 11.320312 2.105469 11.5 1.902344 11.734375 1.894531 C 11.964844 1.882812 12.164062 2.070312 12.171875 2.308594 L 12.195312 2.953125 C 12.191406 3.183594 12.015625 3.371094 11.789062 3.378906 C 11.566406 3.390625 11.375 3.214844 11.351562 2.988281 Z M 12.683594 15.53125 C 12.691406 15.769531 12.511719 15.96875 12.277344 15.980469 C 12.046875 15.988281 11.847656 15.804688 11.839844 15.566406 L 11.816406 14.917969 C 11.820312 14.6875 11.996094 14.5 12.222656 14.492188 C 12.445312 14.484375 12.636719 14.65625 12.660156 14.886719 L 12.695312 15.53125 Z M 22.476562 20.527344 L 19.128906 15.785156 C 16.625 16.007812 14.40625 11.519531 16.203125 10.257812 C 18.394531 8.722656 21.773438 13.105469 20.25 14.953125 L 23.757812 19.640625 C 24.476562 20.605469 23.253906 21.621094 22.480469 20.527344 Z M 5.652344 14.1875 C 6.347656 14.320312 6.921875 14.15625 7.734375 13.257812 L 9.898438 11.035156 C 10.199219 10.71875 9.6875 10.121094 9.316406 10.433594 L 7.535156 12.214844 C 7.449219 12.316406 7.316406 12.363281 7.191406 12.332031 C 7.0625 12.300781 6.964844 12.199219 6.933594 12.070312 C 6.898438 11.9375 6.941406 11.800781 7.039062 11.714844 L 8.878906 9.871094 C 9.199219 9.53125 8.710938 8.957031 8.34375 9.316406 C 7.835938 9.835938 7.007812 10.644531 6.503906 11.164062 C 6.4375 11.269531 6.3125 11.324219 6.191406 11.300781 C 6.066406 11.273438 5.972656 11.175781 5.949219 11.050781 C 5.925781 10.925781 5.980469 10.800781 6.085938 10.730469 L 7.914062 8.898438 C 8.015625 8.78125 8.046875 8.617188 7.992188 8.46875 C 7.941406 8.324219 7.816406 8.214844 7.664062 8.191406 C 7.34375 8.117188 7.132812 8.417969 6.914062 8.625 L 4.769531 10.683594 C 4.1875 11.3125 3.847656 11.976562 4.109375 12.679688 C 4.164062 12.8125 4.238281 12.9375 4.324219 13.050781 L 0.257812 16.886719 C 0.109375 17.027344 0.0234375 17.222656 0.0195312 17.429688 C 0.015625 17.636719 0.09375 17.835938 0.238281 17.984375 L 0.300781 18.050781 C 0.460938 18.210938 0.679688 18.300781 0.90625 18.296875 C 1.132812 18.292969 1.347656 18.195312 1.503906 18.023438 L 5.207031 13.945312 C 5.339844 14.054688 5.488281 14.136719 5.652344 14.1875 Z M 16.460938 16.585938 C 13.335938 18.492188 9.382812 18.203125 6.554688 15.863281 C 6.792969 15.824219 7.03125 15.753906 7.257812 15.664062 C 7.390625 15.605469 7.519531 15.539062 7.648438 15.460938 C 8.089844 15.773438 8.558594 16.035156 9.050781 16.242188 C 10.949219 17.042969 13.078125 17.042969 14.976562 16.242188 C 15.222656 16.140625 15.464844 16.019531 15.699219 15.890625 C 15.757812 15.953125 15.820312 16.015625 15.878906 16.078125 C 16.0625 16.253906 16.257812 16.421875 16.464844 16.574219 Z M 16.460938 16.585938 "/>
</g>
</svg>
